<svg width="406" height="108" xmlns="http://www.w3.org/2000/svg" xmlns:xlink="http://www.w3.org/1999/xlink" xml:space="preserve" overflow="hidden"><g transform="translate(-64 -80)"><path d="M462.892 156.256C458.876 156.256 455.249 156.256 451.636 156.256 450.596 156.256 450.336 155.45 449.829 154.839 446.398 150.238 442.967 145.637 439.431 140.945 435.909 145.65 432.426 150.212 429.033 154.852 428.447 155.819 427.366 156.371 426.239 156.282 423.003 156.191 419.74 156.282 416.036 156.282L426.317 142.972C428.384 140.282 430.372 137.513 432.556 134.914 433.505 133.77 433.336 133.146 432.491 132.067 427.591 125.725 422.782 119.317 417.96 112.909 417.687 112.558 417.193 112.285 417.388 111.427 420.858 111.427 424.38 111.427 427.916 111.427 429.033 111.427 429.397 112.22 429.917 112.909 432.829 116.808 435.805 120.617 438.626 124.607 439.548 125.906 439.925 125.75 440.809 124.607 443.669 120.707 446.658 116.808 449.517 112.909 450.068 111.895 451.16 111.296 452.312 111.375 455.457 111.505 458.629 111.375 462.034 111.375 460.85 113.423 459.466 115.347 457.901 117.12 454.145 122.098 450.375 127.05 446.476 131.924 445.697 132.592 445.608 133.766 446.277 134.545 446.338 134.616 446.405 134.684 446.476 134.745 451.597 141.243 456.666 147.937 461.735 154.553 462.086 155.008 462.359 155.463 462.892 156.256Z" fill="#FFFFFF" transform="matrix(1.00006 0 0 1 7.00272 -5.81376)"/><path d="M343.952 156.736C324.989 156.866 315.358 139.645 321.856 124.334 325.756 115.379 333.346 111.518 342.743 110.985 349.697 110.595 356.079 112.285 360.94 117.679 361.486 118.264 361.888 118.979 362.408 119.603 363.448 120.902 363.487 121.825 361.797 122.475 361.428 122.644 361.072 122.84 360.732 123.06 359.133 124.009 357.625 125.413 355.91 125.763 353.83 126.179 353.388 123.515 351.893 122.54 347.854 119.623 342.533 119.178 338.064 121.383 333.705 123.283 330.873 127.572 330.838 132.327 330.435 140.048 333.593 145.169 339.936 147.066 345.084 148.818 350.777 147.125 354.129 142.842 355.169 141.542 355.819 141.633 357.001 142.426 358.612 143.51 360.298 144.479 362.044 145.325 363.539 146.027 363.344 146.741 362.603 147.924 358.938 153.63 352.439 156.736 343.952 156.736Z" fill="#FFFFFF" transform="matrix(1.00006 0 0 1 7.00272 -5.81376)"/><path d="M57.0329 100.223C57.0329 96.3242 57.1239 92.282 57.0329 88.3308 57.0329 86.3942 57.2668 85.7313 59.5414 85.9652 67.9248 86.8101 76.3211 87.395 84.7305 87.9409 86.5241 88.0448 86.8101 88.7597 86.7971 90.3194 86.7364 97.9272 86.7364 105.535 86.7971 113.143 86.7971 114.781 86.4202 115.418 84.6395 115.366 76.1219 115.054 67.6085 114.828 59.0995 114.69 57.5138 114.69 56.9939 114.209 57.0459 112.597 57.1109 108.477 57.0329 104.344 57.0329 100.223Z" fill="#FFFFFF" transform="matrix(1.00006 0 0 1 7.00272 -5.81376)"/><path d="M57.0719 132.808C57.0719 128.779 57.0719 124.737 57.0719 120.694 57.0719 119.304 57.3708 118.602 58.9565 118.706 67.1969 119.265 75.4633 119.187 83.6517 119.226 85.5753 119.226 86.4462 119.967 86.4072 122.15 86.2642 129.663 86.3292 137.188 86.4072 144.701 86.4072 146.144 86.1992 146.884 84.4576 146.897 76.1262 146.988 67.7818 147.144 59.4504 147.417 57.4748 147.417 56.9679 146.806 57.0329 144.935 57.1889 140.906 57.0719 136.85 57.0719 132.808Z" fill="#FFFFFF" transform="matrix(1.00006 0 0 1 7.00272 -5.81376)"/><path d="M176.207 124.36C176.207 134.316 176.207 144.285 176.207 154.254 176.207 155.775 175.908 156.412 174.231 156.308 171.798 156.178 169.36 156.178 166.926 156.308 165.458 156.373 164.938 155.957 164.99 154.423 165.12 151.355 164.99 148.275 164.99 145.195 164.99 128.298 164.99 111.505 164.99 94.6606 164.99 92.8279 165.432 92.282 167.251 92.425 169.523 92.581 171.803 92.581 174.075 92.425 175.739 92.321 176.246 92.7629 176.233 94.5046 176.168 104.435 176.207 114.378 176.207 124.36Z" fill="#FFFFFF" transform="matrix(1.00006 0 0 1 7.00272 -5.81376)"/><path d="M248.174 124.269C248.174 114.391 248.174 104.513 248.174 94.6346 248.174 92.7759 248.655 92.256 250.448 92.399 252.555 92.5548 254.671 92.5548 256.778 92.399 258.559 92.269 259.079 92.7369 259.066 94.6216 258.988 109.439 259.066 124.256 259.066 139.073 259.066 144.168 259.001 149.276 259.066 154.371 259.066 155.879 258.689 156.36 257.168 156.282 254.9 156.152 252.625 156.152 250.357 156.282 248.655 156.399 248.174 155.853 248.187 154.15 248.252 144.181 248.174 134.225 248.174 124.269Z" fill="#FFFFFF" transform="matrix(1.00006 0 0 1 7.00272 -5.81376)"/><path d="M121.071 103.499C121.071 99.8595 121.071 96.2203 121.071 92.581 121.071 91.2812 121.227 90.7223 122.787 90.8523 129.728 91.4632 136.681 91.9571 143.583 92.412 144.883 92.49 144.974 93.1399 144.974 94.1407 144.974 101.341 144.974 108.529 144.974 115.729 144.974 116.938 144.558 117.198 143.414 117.159 136.46 116.912 129.494 116.691 122.527 116.535 121.11 116.535 120.993 115.768 121.006 114.664 121.097 110.946 121.071 107.229 121.071 103.499Z" fill="#FFFFFF" transform="matrix(1.00006 0 0 1 7.00272 -5.81376)"/><path d="M453.521 193.662C450.726 194 447.815 193.402 446.138 190.192 445.657 189.282 444.708 187.891 446.047 187.281 447.158 186.594 448.617 186.94 449.302 188.053 449.371 188.162 449.429 188.279 449.478 188.398 450.596 190.738 456.978 190.998 458.577 188.97 459.228 188.212 459.403 187.156 459.032 186.228 458.683 185.081 457.629 184.296 456.432 184.291 454.976 184.291 453.508 184.291 452.052 184.291 448.431 184.377 445.424 181.511 445.339 177.89 445.253 174.269 448.119 171.262 451.74 171.177 453.525 171.082 455.313 171.103 457.095 171.242 459.433 171.396 461.453 172.93 462.229 175.141 462.554 175.934 463.633 177.272 462.099 177.74 461.137 178.039 459.499 178.65 458.941 176.662 458.607 175.514 457.534 174.742 456.341 174.79 454.801 174.673 453.254 174.673 451.714 174.79 450.161 174.854 448.952 176.161 449.01 177.714 448.931 179.199 450.07 180.465 451.554 180.544 451.616 180.548 451.678 180.549 451.74 180.548 453.118 180.652 454.495 180.548 455.886 180.626 459.967 180.704 462.814 183.407 462.827 187.19 462.84 190.972 460.058 193.688 455.912 193.688Z" fill="#FFFFFF" transform="matrix(1.00006 0 0 1 7.00272 -5.81376)"/><path d="M442.122 180.223C442.122 182.562 442.122 184.915 442.122 187.255 442.165 190.721 439.39 193.566 435.922 193.61 435.892 193.61 435.861 193.61 435.831 193.61 434.453 193.61 433.076 193.61 431.698 193.61 427.344 193.61 424.679 191.011 424.601 186.761 424.536 182.147 424.601 177.532 424.601 172.918 424.601 171.424 425.043 170.982 426.525 170.995 428.007 171.008 428.539 171.281 428.5 172.866 428.397 177.311 428.5 181.77 428.5 186.215 428.5 189.217 429.371 190.114 432.4 190.114L434.583 190.114C437.456 190.114 438.587 189.035 438.626 186.215 438.626 182.25 438.548 178.286 438.704 174.322 438.704 173.152 437.404 171.112 440.367 171.047 443.331 170.982 442.057 172.983 442.148 174.192 442.239 176.168 442.122 178.195 442.122 180.223Z" fill="#FFFFFF" transform="matrix(1.00006 0 0 1 7.00272 -5.81376)"/><path d="M412.826 190.127C414.678 186.668 415.992 182.947 416.725 179.092 417.247 176.959 417.581 174.785 417.726 172.593 417.856 170.345 419.402 171.099 420.533 171.047 422.132 170.969 421.534 172.138 421.456 172.931 420.844 178.729 419.435 184.415 417.271 189.828 416.413 191.96 415.282 193.727 412.566 193.636 409.849 193.545 408.913 191.921 408.107 189.854 405.933 184.446 404.533 178.757 403.948 172.957 403.87 172.008 403.363 170.878 405.066 171.034 406.145 171.138 407.432 170.475 407.666 172.58 408.175 178.219 409.584 183.739 411.838 188.931 411.957 189.464 412.325 189.909 412.826 190.127Z" fill="#FFFFFF" transform="matrix(1.00006 0 0 1 7.00272 -5.81376)"/><path d="M232.486 117.627C225.792 110.452 210.754 107.541 201.019 116.639 200.951 115.644 200.951 114.645 201.019 113.65 201.279 111.83 200.629 111.219 198.77 111.375 196.663 111.518 194.547 111.518 192.441 111.375 191.141 111.375 190.621 111.661 190.621 113.104 190.673 132.765 190.673 152.43 190.621 172.099 190.621 173.399 190.959 173.815 192.259 173.763 194.445 173.62 196.636 173.62 198.822 173.763 200.889 173.932 201.591 173.425 201.526 171.164 201.357 164.665 201.526 158.166 201.526 151.408 211.378 160.363 227.027 156.801 233.24 149.302 240.453 140.594 240.297 125.984 232.486 117.627ZM214.536 147.677C206.842 147.677 201.409 141.971 201.409 133.887 201.409 125.802 206.725 120.097 214.705 120.11 222.283 120.11 227.508 125.699 227.547 133.809 227.586 141.919 222.179 147.677 214.536 147.677Z" fill="#FFFFFF" transform="matrix(1.00006 0 0 1 7.00272 -5.81376)"/><path d="M394.759 111.271C379.305 108.815 365.32 120.279 368.27 138.241 369.999 148.782 378.291 155.762 389.17 156.606 396.046 157.139 402.61 156.438 408.276 152.031 411.24 149.718 411.201 149.692 408.77 146.988 407.848 145.975 406.925 144.948 406.08 143.856 405.456 143.063 404.962 142.868 404.156 143.635 401.338 146.121 397.759 147.575 394.005 147.755 387.507 148.418 381.164 144.753 379.162 139.164 378.642 137.747 378.629 137.214 380.462 137.253 385.661 137.37 390.86 137.253 396.059 137.253 401.258 137.253 406.613 137.253 411.89 137.253 413.047 137.253 413.774 137.253 413.891 135.681 414.736 122.995 407.393 113.273 394.759 111.271ZM401.895 130.209C398.333 130.131 394.772 130.209 391.198 130.209 387.623 130.209 383.919 130.209 380.28 130.209 378.707 130.209 378.551 129.754 378.98 128.389 380.618 122.787 385.193 119.564 391.614 119.616 397.06 119.561 401.862 123.178 403.311 128.428 403.649 129.975 403.35 130.248 401.895 130.209Z" fill="#FFFFFF" transform="matrix(1.00006 0 0 1 7.00272 -5.81376)"/><path d="M309.938 127.505C309.73 119.252 305.077 113.767 296.94 111.83 289.153 109.953 280.956 110.873 273.779 114.43 270.152 116.158 270.191 116.236 272.141 119.824 272.726 120.889 273.363 121.929 273.87 123.034 274.377 124.139 274.831 124.243 275.871 123.541 280.371 120.567 285.803 119.342 291.143 120.097 295.007 120.284 298.249 123.075 299.007 126.868 299.657 129.832 299.553 129.962 296.407 129.962 293.08 129.962 289.74 129.962 286.412 129.962 283.581 129.977 280.769 130.415 278.068 131.261 272.726 133.042 269.49 136.941 269.126 142.179 268.749 147.885 271.101 152.304 276.261 154.579 284.411 158.166 292.391 157.971 299.8 151.706 299.853 152.359 299.853 153.017 299.8 153.669 299.371 155.918 300.397 156.451 302.477 156.269 304.42 156.139 306.37 156.139 308.313 156.269 309.509 156.269 310.042 156.048 310.029 154.696 310.003 145.572 310.172 136.564 309.938 127.505ZM298.708 143.414C296.004 148.613 287.179 150.797 282.305 147.547 280.38 146.367 279.41 144.1 279.887 141.893 280.29 139.437 282.045 138.241 284.294 137.63 287 137.113 289.759 136.939 292.508 137.11 293.392 137.11 294.289 137.11 295.108 137.11 296.407 137.227 298.591 136.473 299.007 137.526 299.709 139.449 299.601 141.574 298.708 143.414Z" fill="#FFFFFF" transform="matrix(1.00006 0 0 1 7.00272 -5.81376)"/><path d="M379.76 184.564C379.76 183.511 379.682 182.445 379.76 181.406 380.54 171.177 375.757 170.787 368.816 171.138 365.356 171.078 362.503 173.833 362.443 177.293 362.442 177.408 362.443 177.522 362.447 177.636 362.447 180.47 362.447 183.303 362.447 186.137 362.447 187.891 361.927 189.711 360.108 189.919 355.912 190.432 351.67 190.432 347.474 189.919 345.187 189.633 345.187 187.319 345.317 185.383 345.447 183.446 347.032 184.33 347.916 184.291 351.088 184.174 354.259 184.291 357.417 184.291 358.366 184.291 359.133 184.291 359.172 182.991 359.432 174.829 359.055 170.423 348.189 171.151 344.504 171.114 341.486 174.069 341.443 177.753 341.275 180.905 341.275 184.064 341.443 187.216 341.677 191.284 344.381 193.714 348.449 193.714 352.114 193.714 355.767 193.714 359.419 193.714 362.941 193.838 365.897 191.082 366.02 187.56 366.026 187.42 366.026 187.278 366.022 187.138 366.022 184.226 366.022 181.302 366.022 178.39 366.022 175.882 367.048 174.855 369.518 174.777 370.415 174.777 371.312 174.777 372.195 174.777 375.12 174.777 376.095 175.791 376.095 178.754 376.095 183.212 376.095 187.67 376.095 192.116 376.095 193.415 376.563 193.792 377.797 193.753 379.032 193.714 379.825 193.753 379.747 192.129 379.669 189.516 379.76 187.008 379.76 184.564ZM347.994 174.79C349.442 174.653 350.9 174.653 352.348 174.79 354.471 175.151 355.899 177.165 355.538 179.288 355.498 179.526 355.435 179.761 355.351 179.989 355.026 180.678 354.467 180.587 353.921 180.6 352.712 180.6 351.491 180.6 350.282 180.6 349.555 180.671 348.825 180.671 348.098 180.6 347.045 180.405 345.356 181.51 345.278 179.157 345.187 176.454 345.954 174.946 347.994 174.725Z" fill="#FFFFFF" transform="matrix(1.00006 0 0 1 7.00272 -5.81376)"/><path d="M400.686 182.614C400.686 172.411 398.619 170.319 389.248 171.099 385.854 171.249 383.165 174.018 383.113 177.415 383.022 180.717 383.009 184.044 383.113 187.345 383.128 190.82 385.955 193.625 389.429 193.612 389.456 193.612 389.482 193.61 389.508 193.61 390.964 193.61 392.42 193.61 393.875 193.61 397.46 193.777 400.501 191.004 400.668 187.418 400.674 187.273 400.676 187.127 400.673 186.982 400.725 185.526 400.686 184.07 400.686 182.614ZM396.865 186.644C396.923 187.209 396.844 187.78 396.631 188.307 394.915 191.219 392.017 189.958 389.586 190.036 387.766 190.036 386.87 188.671 386.818 186.956 386.74 183.888 386.74 180.821 386.818 177.753 386.71 176.149 387.924 174.761 389.528 174.653 389.721 174.642 389.915 174.647 390.106 174.673L391.068 174.673C396.566 174.673 396.865 174.933 396.865 180.34L396.865 182.289C396.878 183.732 396.891 185.188 396.865 186.644Z" fill="#FFFFFF" transform="matrix(1.00006 0 0 1 7.00272 -5.81376)"/><path d="M121.409 121.175 121.409 144.87C121.409 145.652 122.043 146.286 122.826 146.286 122.839 146.286 122.852 146.286 122.865 146.286L143.518 145.585C144.25 145.524 144.814 144.915 144.818 144.181L144.935 121.747C144.949 120.972 144.333 120.332 143.557 120.318 143.557 120.318 143.557 120.318 143.557 120.318L122.761 119.772C122.006 119.8 121.409 120.42 121.409 121.175Z" fill="#FFFFFF" transform="matrix(1.00006 0 0 1 7.00272 -5.81376)"/><path d="M90.7093 89.9945 90.7093 114.066C90.7093 114.784 91.2912 115.366 92.0091 115.366L115.677 116.236C116.393 116.287 117.015 115.747 117.065 115.031 117.067 114.999 117.068 114.968 117.068 114.937L117.068 91.6971C117.068 90.9793 116.486 90.3974 115.768 90.3974L92.152 88.6557C91.4386 88.5763 90.7959 89.0902 90.7165 89.8037 90.7095 89.867 90.707 89.9308 90.7093 89.9945Z" fill="#FFFFFF" transform="matrix(1.00006 0 0 1 7.00272 -5.81376)"/><path d="M90.7223 120.993 90.8133 145.065C90.8128 145.912 91.499 146.598 92.3461 146.6 92.3638 146.6 92.3813 146.598 92.399 146.598L115.95 146.092C116.789 146.071 117.458 145.384 117.458 144.545L117.458 121.409C117.458 120.57 116.789 119.884 115.95 119.863L92.282 119.447C91.4351 119.432 90.7369 120.107 90.7225 120.954 90.7223 120.967 90.7222 120.98 90.7223 120.993Z" fill="#FFFFFF" transform="matrix(1.00006 0 0 1 7.00272 -5.81376)"/><path d="M57.0199 153.37 57.0199 177.025C57.0192 178.418 58.1475 179.547 59.5402 179.548 59.5666 179.548 59.593 179.548 59.6194 179.547L84.4185 178.247C85.7581 178.185 86.8115 177.08 86.8101 175.739L86.8101 152.72C86.8101 151.335 85.687 150.212 84.3016 150.212 84.2973 150.212 84.2929 150.212 84.2886 150.212L59.5414 150.771C58.1489 150.769 57.0194 151.899 57.0187 153.291 57.0187 153.317 57.0191 153.344 57.0199 153.37Z" fill="#FFFFFF" transform="matrix(1.00006 0 0 1 7.00272 -5.81376)"/><path d="M90.7093 152.499 90.7093 175.141C90.6659 176.425 91.6718 177.501 92.9559 177.544 92.9999 177.547 93.0439 177.547 93.0879 177.545L115.314 176.35C116.551 176.24 117.49 175.188 117.458 173.945L117.458 151.927C117.523 150.637 116.53 149.538 115.24 149.472 115.225 149.472 115.211 149.471 115.197 149.471L92.9709 150.056C91.6795 150.097 90.6664 151.179 90.7082 152.469 90.7085 152.48 90.7089 152.489 90.7093 152.499Z" fill="#FFFFFF" transform="matrix(1.00006 0 0 1 7.00272 -5.81376)"/><path d="M120.876 152.07 120.876 173.269C120.812 174.452 121.718 175.463 122.901 175.528 122.941 175.529 122.981 175.531 123.021 175.531L143.037 174.4C144.174 174.278 145.022 173.294 144.974 172.151L144.974 151.537C145.032 150.355 144.121 149.347 142.938 149.289 142.937 149.289 142.934 149.289 142.933 149.289L122.904 149.822C121.727 149.892 120.825 150.893 120.876 152.07Z" fill="#FFFFFF" transform="matrix(1.00006 0 0 1 7.00272 -5.81376)"/></g></svg>